<svg xmlns="http://www.w3.org/2000/svg" width="387.7" height="269.5"><path d="M5.5 32.3s27.8-32.3 76.2-32.3 114.6 24.5 139.6 34.5 97.4 42.3 154.1 24.5c0 0-12.8 154.1-189.7 154.1 0 0-148.5 9.4-180.2-180.8z" fill="#fff"/><path d="M375.4 59c-41.4 13-91.1-.7-124.7-13l-51.8 56.9c-2.9 9.1 4.5 13.1 4.5 13.1s-47 55.2-47.8 56.3c-.9 1.1-2.9 0-2.9 0-2-1.6-.7-3.6-.7-3.6l32.3-38.3s1.6-1.3 0-2.9c-1.6-1.6-2.9-.2-2.9-.2s-30.9 36.5-32.7 38.5c-1.8 2-3.6.2-3.6.2-1.6-1.6 0-3.3 0-3.3l32.5-38.7s1.1-1.3-.7-3.1-3.3 0-3.3 0-30.7 36.3-32.3 38.3c-1.6 2-3.6.2-3.6.2-1.1-.9-.2-3.1-.2-3.1l32.3-38.5s1.1-1.8-.4-3.3c-1.6-1.6-3.6.2-3.6.2s-30.9 36-32.5 38.1c-1.6 2-3.3.2-3.3.2-1.3-1.1 0-3.6 0-3.6l47.6-55.6c6.9 6.7 13.4 2.7 13.4 2.7l43.8-56.5c-5.3-2.1-9.9-4-13.4-5.4-3-1.2-6.6-2.6-10.7-4.2l-29.1 31-.4 4.9-37.8 49c-24.5 31.4-33.8 32.9-33.8 32.9-10.7 6.2-15.6-1.3-15.6-1.3l75.7-89.5 4.9-.9 23.9-30.6c-31.6-11.3-79.5-25.9-116.8-25.9-48.4 0-76.2 32.3-76.2 32.3 31.7 190.2 180.2 180.8 180.2 180.8 176.9 0 189.7-154.1 189.7-154.1z" fill="#8FB93E"/><path d="M9.4 25.4s8.9 187.5 181.4 187.5c172.4 0 187.4-155.9 187.4-155.9" stroke="#403C39" stroke-width="18.84" stroke-linecap="round" stroke-linejoin="round" fill="none"/><path d="M43.6 255.6c0-4.4-1.4-7.7-4-10-2.8-2.5-6.8-3.8-12.1-3.8h-12.2c-.6 0-1 .3-1 .8v25.8c0 .4.4.8 1 .8h10.4c5.5 0 9.7-1.1 12.9-3.5 3.3-2.4 5-5.7 5-10.1zm-3 0c0 3.7-1.3 6.6-4 8.5-2.5 1.9-6.1 2.8-10.8 2.8h-8.5v-22.9h10.1c4.2 0 7.8 1.2 10.1 3 1.7 2.1 3.1 5.3 3.1 8.6zm11.3 13.6c.6 0 .9-.3.9-.8v-25.8c0-.5-.3-.8-.9-.8h-1.1c-.6 0-.9.3-.9.8v25.8c0 .4.3.8.9.8h1.1zm36.5 0c.6 0 1-.3 1-.8v-.7c0-.5-.4-.8-1-.8h-26.5v-10.9h18.5c.6 0 .9-.3.9-.8v-.7c0-.4-.3-.7-.9-.7h-18.5v-9.8h26.3c.6 0 1-.3 1-.8v-.7c0-.5-.4-.8-1-.8h-28.1c-.6 0-1 .3-1 .8v25.8c0 .4.4.8 1 .8h28.3v.1zm29-25.1c.5 0 .9-.3.9-.8v-.7c0-.5-.4-.8-.9-.8h-25.4c-.6 0-.9.3-.9.8v.7c0 .4.4.8.9.8h11.3v24.4c0 .4.3.8.9.8h1.1c.6 0 .9-.3.9-.8v-24.4h11.2zm59.5 3.3c.4-.2.5-.6.2-1-2.7-3.2-7.1-4.7-13.3-4.7-5.3 0-9.5 1.3-12.7 3.9-3.1 2.5-4.7 6-4.7 10.3 0 4.2 1.5 7.5 4.6 10 3 2.5 7.1 3.8 12.4 3.8 6 0 10.4-1.6 13.3-4.8.2-.3.1-.8-.2-1l-.8-.5c-.5-.3-1.1-.2-1.4.2-2.3 2.6-6 3.9-11 3.9-4.3 0-7.7-1-10.3-3.1-2.5-2.1-3.8-5-3.8-8.5 0-3.6 1.3-6.5 3.9-8.6 2.7-2.1 6.2-3.2 10.6-3.2 5.2 0 8.9 1.2 10.9 3.8.3.3.8.4 1.3.2l1-.7zm33.5 1.7c0-4.8-3.8-7.3-11.4-7.3h-14.7c-.6 0-.9.3-.9.8v25.8c0 .4.3.8.9.8h1c.6 0 .9-.3.9-.8v-11.3h12.3c5.6 0 8.5 1.7 8.5 5.1v6.2c0 .4.4.8 1 .8h.9c.6 0 1-.3 1-.8v-6.3c0-2.9-1.7-5.1-4.6-6.3 3.5-1.2 5.1-3.4 5.1-6.7zm-2.9.1c0 1.9-1 3.4-2.8 4.4-1.6.8-3.6 1.2-6.4 1.2h-12v-10.7h12.8c5.6 0 8.4 1.8 8.4 5.1zm38.9 20c.6 0 1-.3 1-.8v-.7c0-.5-.4-.8-1-.8h-26.2v-10.9h18.5c.6 0 .9-.3.9-.8v-.7c0-.4-.3-.7-.9-.7h-18.5v-9.8h26c.6 0 1-.3 1-.8v-.7c0-.5-.4-.8-1-.8h-27.8c-.6 0-1 .3-1 .8v25.8c0 .4.4.8 1 .8h28v.1zm33.5 0c.8 0 1.2-.6.8-1.1-4.6-8.6-9.3-17.3-13.9-25.8-.1-.2-.6-.5-.8-.5h-1.2c-.3 0-.8.3-.9.5l-14.3 25.8c-.3.5.1 1.1.9 1.1h1.2c.2 0 .7-.2.8-.5 1-1.8 2-3.8 3.1-5.6.4-.8.9-1.6 1.4-2.4h16.7l4.3 8c.1.3.6.5.8.5h1.1zm-7.5-10.7h-14.2c2.5-4.6 4.7-8.5 7.3-13l6.9 13zm33.2-14.4c.5 0 .9-.3.9-.8v-.7c0-.5-.4-.8-.9-.8h-25.4c-.6 0-.9.3-.9.8v.7c0 .4.4.8.9.8h11.3v24.4c0 .4.3.8.9.8h1.1c.6 0 .9-.3.9-.8v-24.4h11.2zm38.4 11.5c0-4.3-1.5-7.7-4.5-10-3.1-2.4-7.4-3.6-12.6-3.6-5.2 0-9.5 1.2-12.6 3.6-3 2.3-4.6 5.7-4.6 10s1.5 7.7 4.6 10.2c3 2.5 7.3 3.8 12.6 3.8 5.4 0 9.6-1.2 12.6-3.8 3-2.6 4.5-5.9 4.5-10.2zm-2.9 0c0 3.6-1.2 6.5-3.8 8.5-2.5 2.1-6 3.1-10.5 3.1-4.4 0-7.9-1-10.4-3.1s-3.8-5-3.8-8.5c0-3.6 1.2-6.4 3.7-8.3 2.5-2 6-3 10.5-3 4.6 0 8 1 10.6 2.9 2.5 2 3.7 4.7 3.7 8.4zm35.6-6.5c0-4.8-3.8-7.3-11.4-7.3h-14.7c-.6 0-.9.3-.9.8v25.8c0 .4.3.8.9.8h1c.6 0 .9-.3.9-.8v-11.3h12.3c5.6 0 8.5 1.7 8.5 5.1v6.2c0 .4.4.8 1 .8h.9c.6 0 1-.3 1-.8v-6.3c0-2.9-1.7-5.1-4.6-6.3 3.5-1.2 5.1-3.4 5.1-6.7zm-2.9.1c0 1.9-1 3.4-2.8 4.4-1.6.8-3.6 1.2-6.4 1.2h-12v-10.7h12.8c5.6 0 8.4 1.8 8.4 5.1z"/><path d="M75.6 243m159.2 0 12 0" stroke="#000" stroke-width="2.308" stroke-linecap="round" stroke-linejoin="round" fill="none"/></svg>